<svg width="23" height="22" viewBox="0 0 23 22" fill="none" xmlns="http://www.w3.org/2000/svg">
<path d="M22.1226 8.87825H21.25V8.83329H11.5V13.1666H17.6224C16.7292 15.6892 14.3291 17.5 11.5 17.5C7.91033 17.5 4.99996 14.5896 4.99996 11C4.99996 7.41033 7.91033 4.49996 11.5 4.49996C13.1569 4.49996 14.6644 5.12504 15.8122 6.14608L18.8764 3.08188C16.9415 1.27867 14.3535 0.166626 11.5 0.166626C5.51725 0.166626 0.666626 5.01725 0.666626 11C0.666626 16.9827 5.51725 21.8333 11.5 21.8333C17.4827 21.8333 22.3333 16.9827 22.3333 11C22.3333 10.2736 22.2585 9.56454 22.1226 8.87825Z" fill="#FFC107"/>
<path d="M1.91577 5.95758L5.47506 8.56788C6.43815 6.18346 8.77056 4.49996 11.5 4.49996C13.157 4.49996 14.6644 5.12504 15.8122 6.14608L18.8764 3.08188C16.9416 1.27867 14.3535 0.166626 11.5 0.166626C7.33894 0.166626 3.73036 2.51583 1.91577 5.95758Z" fill="#FF3D00"/>
<path d="M11.5 21.8333C14.2982 21.8333 16.8408 20.7625 18.7632 19.021L15.4103 16.1838C14.3226 17.0076 12.9706 17.5 11.5 17.5C8.68222 17.5 6.28967 15.7033 5.38834 13.1959L1.85559 15.9178C3.64851 19.4262 7.28959 21.8333 11.5 21.8333Z" fill="#4CAF50"/>
<path d="M22.1226 8.87833H21.25V8.83337H11.5V13.1667H17.6225C17.1935 14.3784 16.414 15.4233 15.4087 16.1843C15.4092 16.1838 15.4097 16.1838 15.4103 16.1832L18.7632 19.0205C18.526 19.2361 22.3333 16.4167 22.3333 11C22.3333 10.2737 22.2586 9.56462 22.1226 8.87833Z" fill="#1976D2"/>
</svg>
