<svg width="56" height="75" viewBox="0 0 56 75" fill="none" xmlns="http://www.w3.org/2000/svg">
<path d="M31.377 63.9824C31.7682 62.3035 31.719 60.2088 32.9866 58.9033C34.2049 57.6491 36.2012 57.1953 37.7773 56.6073C41.6873 55.1497 45.6241 53.3077 48.7494 50.4842C54.7228 45.0786 56.4374 36.778 51.2487 30.1921C49.0378 27.3843 46.1718 25.4818 42.9861 24.2009L42.983 24.2005C41.399 23.9866 39.7898 23.9413 38.1941 23.9817C38.0142 23.9862 37.8343 23.9941 37.6544 24.0008C35.3045 24.0872 32.9599 24.3474 30.6414 24.7838C30.5293 24.8049 30.4172 24.8265 30.305 24.848C29.519 24.9976 28.7318 25.1468 27.9352 25.1578C27.9093 25.1582 27.8835 25.1598 27.8575 25.1598C27.7421 25.1599 27.6268 25.1569 27.5116 25.1512C27.4815 25.1497 27.4515 25.1467 27.4215 25.1449C26.7811 25.1059 26.1449 24.9903 25.5105 24.8702C25.3756 24.8445 25.2408 24.8187 25.1062 24.7933C24.5418 24.6885 23.9758 24.5947 23.4088 24.5097C21.5212 24.226 19.6204 24.0515 17.7167 23.9895C17.6173 23.9862 17.5178 23.9843 17.4183 23.9817C15.7146 23.9373 13.9976 23.9921 12.3124 24.2479C12.1217 24.2768 11.9313 24.3085 11.7414 24.3428C10.6807 24.5341 9.63436 24.8091 8.61452 25.1979C7.95235 25.4509 7.30264 25.758 6.67462 26.113C4.64933 27.2566 2.86361 28.925 1.70554 31.0821C1.64497 31.1948 1.58279 31.3063 1.52563 31.4217C0.501851 33.4929 0.114101 35.8021 0.022752 38.1781C-0.0581594 40.2747 0.0915817 42.4229 0.238611 44.5048C0.725066 51.3913 1.17749 58.701 4.77626 64.3152C4.96328 64.607 5.1597 64.8896 5.36097 65.1676C5.3793 65.1929 5.39849 65.2173 5.41694 65.2425C5.59405 65.4844 5.77625 65.721 5.96351 65.9525C6.00539 66.0044 6.04816 66.0553 6.09053 66.1067C6.25687 66.308 6.42671 66.5053 6.60033 66.6986C6.65531 66.76 6.71021 66.8213 6.76593 66.8819C6.93474 67.0651 7.10712 67.244 7.28217 67.42C7.32384 67.4619 7.36313 67.5066 7.40512 67.5481L7.46422 67.6043C7.55581 67.6939 7.6495 67.781 7.74266 67.8687C7.83401 67.9545 7.92507 68.0403 8.01765 68.124C8.14196 68.2367 8.26786 68.3472 8.39463 68.4568C8.41896 68.4777 8.44263 68.4998 8.467 68.5206C8.48812 68.5387 8.51027 68.5554 8.53147 68.5735C8.7147 68.7289 8.9002 68.8812 9.0882 69.03C9.14384 69.0741 9.19952 69.1179 9.25557 69.1613C9.42865 69.2955 9.60354 69.4266 9.7802 69.5552C9.8496 69.6058 9.91896 69.6564 9.9889 69.7061C10.1562 69.8249 10.3252 69.9406 10.4954 70.0545C10.574 70.1072 10.6523 70.1603 10.7315 70.2119C10.8986 70.3208 11.0675 70.4263 11.2371 70.5307C11.3191 70.5811 11.4006 70.6325 11.4832 70.6818C11.6585 70.7867 11.8355 70.8878 12.0131 70.988C12.0899 71.0313 12.1659 71.0758 12.243 71.1182C12.4447 71.229 12.6482 71.3355 12.8524 71.4403C12.9049 71.4672 12.9568 71.4956 13.0095 71.5222C13.535 71.7872 14.0683 72.0317 14.6063 72.2585C21.1855 72.7993 29.7271 71.0801 31.377 63.9824Z" fill="#F7A531"/>
<path d="M55.6397 39.2288C55.6373 38.8285 55.6305 38.4291 55.6127 38.0321C55.5054 35.649 55.0918 33.3397 54.0389 31.274C53.3976 30.0147 52.542 28.9189 51.5486 27.9911C50.2426 26.7712 48.6979 25.8424 47.084 25.2202C46.5922 25.0314 46.0939 24.8687 45.5906 24.7287L45.568 24.7222C45.4126 24.6792 45.2565 24.6389 45.1002 24.6002L45.0476 24.5869C44.8965 24.5499 44.7449 24.5154 44.5931 24.4824C44.5701 24.4774 44.5472 24.4721 44.5242 24.4672C44.3741 24.4351 44.2236 24.4051 44.0728 24.3766C44.0489 24.372 44.0251 24.3674 44.0012 24.3629C43.8474 24.3344 43.6933 24.3078 43.5389 24.2829L43.4844 24.274C43.4334 24.2659 43.3824 24.2581 43.3313 24.2503V20.196H37.6545V24.0006C37.8344 23.994 38.0143 23.9861 38.1943 23.9815C39.7869 23.9412 41.3929 23.9863 42.9741 24.1992L43.0644 24.2325C46.2188 25.5131 49.056 27.4072 51.2488 30.192C56.4375 36.7779 54.7229 45.0785 48.7495 50.4841C45.6242 53.3075 41.6874 55.1496 37.7774 56.6072C36.2013 57.1952 34.205 57.649 32.9866 58.9032C31.7191 60.2087 31.7682 62.3034 31.377 63.9823C29.7272 71.08 21.1855 72.7992 14.6065 72.2584L14.606 72.2583C14.6084 72.2594 14.6109 72.2603 14.6134 72.2613C14.8747 72.372 15.136 72.4784 15.3974 72.578C15.7113 72.6985 16.0264 72.8128 16.3421 72.9239C16.4272 72.9538 16.5125 72.9827 16.5977 73.012C16.8357 73.0938 17.0742 73.1727 17.3131 73.2492C17.4035 73.2782 17.4939 73.3077 17.5846 73.3359C17.8953 73.4327 18.2066 73.5261 18.5185 73.614C18.5609 73.6259 18.6034 73.6365 18.6458 73.6482C18.9176 73.7236 19.1899 73.7953 19.4625 73.864C19.5698 73.891 19.6772 73.9169 19.7847 73.9429C20.0061 73.9964 20.2277 74.0475 20.4496 74.0966C20.5524 74.1193 20.6551 74.1427 20.758 74.1645C21.0654 74.2295 21.3733 74.2912 21.6815 74.3477C21.7516 74.3606 21.8219 74.3715 21.892 74.3839C22.1414 74.428 22.391 74.4697 22.6408 74.5082C22.7517 74.5253 22.8627 74.5415 22.9736 74.5575C23.2004 74.5902 23.4273 74.6204 23.6543 74.6485C23.7513 74.6605 23.8482 74.6735 23.9452 74.6846C24.2583 74.7207 24.5717 74.7529 24.8853 74.7802C24.9544 74.7863 25.0237 74.7906 25.0928 74.7961C25.3489 74.8169 25.6052 74.8349 25.8615 74.8498C25.9612 74.8556 26.061 74.8607 26.1608 74.8656C26.4143 74.8781 26.6679 74.8878 26.9216 74.8946C26.9927 74.8965 27.0639 74.8994 27.135 74.9008C27.4617 74.9075 27.7883 74.9098 28.115 74.9069C28.1654 74.9065 28.2158 74.9049 28.2661 74.9043C28.5483 74.9006 28.8304 74.8934 29.1124 74.8826C29.1877 74.8797 29.263 74.8766 29.3383 74.8733C29.6415 74.8597 29.9447 74.8428 30.2477 74.821C30.2708 74.8194 30.2938 74.8183 30.3169 74.8166C30.6642 74.7909 31.0113 74.7599 31.3581 74.7235L31.4106 74.7176C31.735 74.6831 32.0591 74.6435 32.3829 74.5995C32.403 74.5968 32.4232 74.595 32.4434 74.5922L32.4925 74.5846C33.2255 74.483 33.956 74.357 34.6839 74.2076C34.7509 74.1938 34.8178 74.1798 34.8847 74.1656C35.6097 74.0122 36.332 73.8355 37.0514 73.6331L37.1022 73.6197C38.79 72.4259 40.1873 70.8722 41.1017 68.8804C41.8237 67.3088 42.1814 65.5919 42.4989 63.9018C42.8319 62.1134 43.5809 61.123 45.2173 60.3428C48.1391 58.9523 50.8128 57.8167 53.0663 55.3955C53.5827 54.8411 54.0611 54.2554 54.5015 53.6406C54.5059 53.6129 54.5094 53.5848 54.5138 53.557C54.5475 53.3402 54.5782 53.1224 54.6093 52.9047C54.6365 52.7142 54.6639 52.5237 54.6893 52.3326C54.7133 52.1513 54.736 51.9694 54.7584 51.7876C54.7858 51.5665 54.8127 51.3453 54.838 51.1236C54.858 50.948 54.8773 50.7723 54.8962 50.5965C54.9193 50.3808 54.9417 50.1651 54.9631 49.9491C54.9827 49.7515 55.0023 49.5539 55.0207 49.3562C55.0364 49.1875 55.0516 49.0188 55.0666 48.85C55.0895 48.5911 55.1125 48.3322 55.1339 48.0734C55.1374 48.0312 55.1408 47.989 55.1442 47.9468C55.2339 46.8517 55.3121 45.7587 55.3912 44.6762C55.5214 42.8847 55.6505 41.0442 55.6397 39.2288Z" fill="#F18D15"/>
<path d="M53.0661 55.3956C50.8126 57.8167 48.139 58.9524 45.2171 60.3429C43.5806 61.1231 42.8317 62.1135 42.4987 63.9019C42.1812 65.592 41.8236 67.3089 41.1015 68.8805C40.1871 70.8723 38.7899 72.426 37.1021 73.6198C37.1312 73.6117 37.1601 73.6024 37.1892 73.5942C37.3985 73.535 37.6073 73.473 37.8159 73.4097C37.9281 73.3757 38.0402 73.3412 38.1522 73.306C38.2971 73.2604 38.4417 73.2129 38.5862 73.1653C38.7315 73.1175 38.8769 73.0698 39.0219 73.0199C39.1387 72.9797 39.2552 72.9374 39.3718 72.8959C39.5304 72.8394 39.6892 72.7837 39.8474 72.7248C40.0432 72.6519 40.2382 72.5759 40.4332 72.4993C40.5023 72.4722 40.5719 72.447 40.6409 72.4194C43.1044 71.4365 45.4789 70.056 47.5162 68.2362C48.7457 67.1379 49.8525 65.8797 50.7813 64.4519C51.0156 64.0918 51.2367 63.7244 51.4456 63.3505C51.4594 63.3259 51.4722 63.3008 51.4858 63.2761C51.5742 63.1164 51.661 62.9558 51.745 62.7938C51.772 62.7416 51.7976 62.6886 51.8242 62.6362C51.8928 62.5011 51.961 62.3657 52.0267 62.2291C52.0609 62.1581 52.0933 62.0862 52.1266 62.0148C52.1821 61.8961 52.2377 61.7775 52.291 61.6577C52.3297 61.5709 52.3666 61.4832 52.4042 61.3958C52.4495 61.2905 52.4952 61.1853 52.5389 61.0792C52.5801 60.9796 52.6195 60.8792 52.6593 60.7789C52.6969 60.684 52.735 60.5893 52.7714 60.4938C52.8138 60.3831 52.8544 60.2716 52.8952 60.1601C52.9267 60.0743 52.9584 59.9886 52.9889 59.9024C53.0315 59.782 53.0726 59.6609 53.1135 59.5396C53.14 59.4611 53.1668 59.3827 53.1926 59.3039C53.2345 59.1758 53.275 59.0469 53.3152 58.9179C53.3379 58.8449 53.3608 58.7719 53.3829 58.6987C53.4236 58.5641 53.4631 58.4289 53.5019 58.2935C53.5216 58.2248 53.5414 58.1561 53.5607 58.0872C53.5997 57.9475 53.6376 57.8073 53.6747 57.6667C53.6922 57.6007 53.7096 57.5347 53.7266 57.4684C53.7633 57.3264 53.7988 57.184 53.8336 57.0411C53.85 56.9737 53.8664 56.9062 53.8824 56.8386C53.9157 56.6982 53.9482 56.5573 53.9799 56.4161C53.9963 56.3432 54.0124 56.2702 54.0284 56.197C54.0576 56.0626 54.0864 55.9279 54.1143 55.7928C54.1319 55.7077 54.1492 55.6224 54.1662 55.5371C54.1905 55.416 54.2143 55.2948 54.2375 55.1733C54.2579 55.0662 54.2778 54.959 54.2974 54.8516C54.3085 54.7907 54.3205 54.7302 54.3313 54.6693C54.3356 54.6453 54.339 54.6213 54.3432 54.5973C54.3991 54.2792 54.4534 53.9611 54.5012 53.6409C54.0609 54.2555 53.5825 54.8412 53.0661 55.3956Z" fill="#E57F12"/>
<path d="M23.1471 29.9798C22.7519 28.6139 21.5595 27.5748 20.2195 27.0993C18.8794 26.6239 17.4084 26.6493 16.0049 26.8771C15.4736 26.9634 14.9476 27.0789 14.4293 27.2222C11.1129 28.1388 8.11217 30.1912 6.0852 32.9748C3.7414 36.1935 2.72772 40.3512 3.3271 44.2874C3.49131 45.366 3.7843 46.4551 4.42867 47.3355C5.073 48.216 6.12473 48.8568 7.21265 48.7748C8.1976 48.7005 9.06844 48.0518 9.63856 47.2452C10.2086 46.4385 10.5227 45.4828 10.809 44.5374C11.3886 42.6234 11.9075 40.641 13.0597 39.0064C14.1064 37.5215 15.5997 36.4508 17.1967 35.6239C19.5253 34.4182 24.2485 33.7861 23.1471 29.9798Z" fill="white"/>
<path d="M31.7014 55.56C31.6992 55.5136 31.6945 55.4667 31.6869 55.4196L30.3525 47.0463L30.3781 47.0205C30.4079 46.9916 30.4369 46.9621 30.4658 46.9321C30.5143 46.8818 30.5611 46.83 30.6068 46.777C30.6332 46.7463 30.6597 46.7159 30.6851 46.6843C30.7329 46.6249 30.7779 46.5635 30.822 46.5011C30.8413 46.4738 30.8618 46.4475 30.8804 46.4196C30.9411 46.3286 30.9984 46.2353 31.0509 46.1388L31.0683 46.1038C31.1138 46.0181 31.1561 45.9306 31.1948 45.8411C31.2096 45.8072 31.2221 45.7722 31.2358 45.7377C31.2633 45.6685 31.2895 45.5986 31.3128 45.5274C31.3258 45.4877 31.3376 45.4476 31.3492 45.4073C31.3693 45.3379 31.3873 45.2678 31.4034 45.1968C31.4127 45.1558 31.4219 45.1149 31.4298 45.0734C31.4443 44.9972 31.4554 44.9199 31.4652 44.8421C31.4698 44.8054 31.4756 44.7692 31.4791 44.7322C31.49 44.6172 31.4968 44.5011 31.4968 44.3833V44.3833C31.4968 43.9686 31.4249 43.5716 31.2984 43.1998C31.2367 43.0187 31.1614 42.844 31.0736 42.6768C30.9859 42.5097 30.8857 42.3501 30.7742 42.1993C30.7185 42.1239 30.66 42.0508 30.5988 41.9799C29.9869 41.2718 29.1098 40.7998 28.1211 40.7198C28.0222 40.7118 27.9222 40.7078 27.8213 40.7078C27.7054 40.7078 27.5912 40.7146 27.4782 40.7251C27.443 40.7283 27.4086 40.7334 27.3738 40.7377C27.2948 40.7473 27.2166 40.7589 27.1393 40.7735C27.1016 40.7805 27.0642 40.788 27.0269 40.7962C26.9489 40.8135 26.8721 40.8335 26.796 40.8556C26.7652 40.8646 26.734 40.8724 26.7034 40.8821C26.5993 40.9154 26.4969 40.9523 26.397 40.9943L26.3537 41.0144C26.2685 41.0516 26.185 41.0917 26.1034 41.135C26.0716 41.1519 26.0406 41.17 26.0094 41.1878C25.9451 41.2243 25.882 41.2625 25.8201 41.3027C25.7886 41.3233 25.7573 41.3438 25.7265 41.3652L25.6691 41.4035L25.6782 41.4014C25.9796 41.3215 26.2961 41.2786 26.6226 41.2786C28.6526 41.2786 30.2981 42.9241 30.2981 44.9541C30.2981 46.1802 29.8026 47.2347 28.8797 47.9024L29.8592 54.0489C29.9795 54.8027 29.3971 55.4852 28.6337 55.4852H23.9469L23.9449 55.523C23.9432 55.5457 23.9419 55.5682 23.9414 55.5907C23.9409 55.6137 23.9412 55.6365 23.9421 55.6593C23.9428 55.6815 23.9438 55.7037 23.9458 55.7257C23.9478 55.7482 23.9507 55.7704 23.9538 55.7925C23.957 55.8143 23.9603 55.8359 23.9645 55.8573C23.9689 55.8791 23.9741 55.9004 23.9796 55.9219C23.985 55.9429 23.9905 55.9638 23.9969 55.9844C24.0035 56.0054 24.011 56.0258 24.0186 56.0463C24.0261 56.0665 24.0336 56.0866 24.0421 56.1062C24.0508 56.1263 24.0606 56.1459 24.0703 56.1655L24.0994 56.2218L24.1338 56.278L24.1682 56.3307L24.2085 56.3831L24.2476 56.4316L24.2934 56.4799L24.3371 56.5239L24.3884 56.5678L24.4357 56.6067L24.4927 56.6459L24.5428 56.6791C24.5631 56.6913 24.5844 56.7019 24.6054 56.713L24.6578 56.7404C24.6799 56.7507 24.7031 56.7592 24.726 56.7682L24.7798 56.7895C24.8043 56.7979 24.8297 56.8041 24.8549 56.8109L24.9083 56.8257C24.9363 56.832 24.9653 56.8359 24.9941 56.8402L25.0423 56.8481C25.0851 56.8529 25.1286 56.8551 25.1727 56.8554L25.1811 56.8559H30.4614C31.1322 56.8559 31.6634 56.3286 31.7006 55.6892C31.7031 55.6466 31.7034 55.6035 31.7014 55.56Z" fill="#DB5F12"/>
<path d="M17.4185 14.6714C17.4185 9.51874 21.9574 5.32675 27.5366 5.32675C33.1157 5.32675 37.6546 9.51874 37.6546 14.6714V20.196H43.3314V14.6714C43.3314 6.58152 36.2459 0 27.5366 0C18.8272 0 11.7417 6.58156 11.7417 14.6714V20.196H17.4186V14.6714H17.4185Z" fill="#F7A531"/>
<path d="M17.4183 23.9816V20.196H11.7415V24.3427C11.9313 24.3084 12.1217 24.2767 12.3125 24.2478C13.9976 23.992 15.7146 23.9372 17.4183 23.9816Z" fill="#F18D15"/>
<path d="M28.8798 47.9024C29.8027 47.2347 30.2982 46.1802 30.2982 44.9541C30.2982 42.9241 28.6527 41.2786 26.6227 41.2786C26.2962 41.2786 25.9707 41.3236 25.6693 41.4035C24.7425 42.0708 24.1459 43.1541 24.1459 44.3833C24.1459 45.4313 24.5868 46.3745 25.2905 47.044L23.9557 55.4196C23.9522 55.4416 23.9513 55.4633 23.949 55.4852H28.6339C29.3972 55.4852 29.9796 54.8026 29.8594 54.0489L28.8798 47.9024Z" fill="white"/>
</svg>
