<svg width="25" height="25" viewBox="0 0 25 25" fill="none" xmlns="http://www.w3.org/2000/svg">
<path d="M20.6627 18.2133C19.8779 18.4009 19.0587 18.5002 18.2165 18.5002C12.4266 18.5002 7.733 13.8065 7.733 8.01668C7.733 7.42038 7.78277 6.83572 7.87842 6.2666C7.83379 6.30953 7.78766 6.34908 7.73909 6.38594C7.393 6.64867 6.96197 6.7462 6.0999 6.94126L5.31506 7.11884C2.28141 7.80522 0.764586 8.14841 0.403707 9.3089C0.0428286 10.4694 1.07691 11.6786 3.14505 14.097L3.68011 14.7226C4.2678 15.4099 4.56166 15.7535 4.69385 16.1786C4.82605 16.6038 4.78162 17.0622 4.69276 17.9792L4.61188 18.8139C4.2992 22.0406 4.14286 23.654 5.08764 24.3712C6.03241 25.0883 7.45262 24.4345 10.2931 23.1267L11.0279 22.7883C11.835 22.4167 12.2386 22.2309 12.6664 22.2309C13.0943 22.2309 13.4978 22.4167 14.3049 22.7883L15.0397 23.1267C17.8801 24.4345 19.3004 25.0883 20.2452 24.3712C21.19 23.654 21.0336 22.0406 20.7209 18.8139L20.6627 18.2133Z" fill="white"/>
<path d="M9.15516 4.20373L8.75099 4.92876C8.30706 5.72514 8.08509 6.12333 7.739 6.38606C7.78757 6.34918 7.8337 6.30965 7.87834 6.26672C7.78269 6.83584 7.73291 7.42049 7.73291 8.0168C7.73291 13.8066 12.4265 18.5003 18.2164 18.5003C19.0587 18.5003 19.8778 18.401 20.6627 18.2134L20.64 17.9793C20.5511 17.0623 20.5067 16.6039 20.6389 16.1787C20.7711 15.7536 21.0649 15.41 21.6526 14.7228L22.1877 14.0971C24.2558 11.6787 25.2898 10.4694 24.929 9.309C24.5681 8.14853 23.0513 7.80534 20.0176 7.11894L19.2329 6.94136C18.3707 6.74631 17.9397 6.64879 17.5936 6.38606C17.2475 6.12333 17.0255 5.72514 16.5816 4.92877L16.1775 4.20372C14.6152 1.40124 13.8341 0 12.6664 0C11.4985 0 10.7174 1.40125 9.15516 4.20373Z" fill="#FFAA21"/>
</svg>
