<svg width="20" height="23" viewBox="0 0 20 23" fill="none" xmlns="http://www.w3.org/2000/svg">
<path d="M6.27262 10.5148L12.1123 11.6474L13.0664 17.5239C13.0755 17.5801 13.1564 17.5801 13.1655 17.5239L14.1196 11.6474L19.9593 10.5148C20.0132 10.5044 20.0135 10.427 19.9596 10.4163L14.1196 9.26033L13.1655 3.66159C13.1561 3.60597 13.076 3.60597 13.0667 3.66159L12.1126 9.26033L6.27262 10.4163C6.21837 10.427 6.21837 10.5044 6.27262 10.5148Z" fill="white" fill-opacity="0.3"/>
<path d="M0.3177 17.5158L4.08121 18.2457L4.69608 22.0332C4.70186 22.0696 4.75417 22.0696 4.75996 22.0332L5.37482 18.2457L9.13833 17.5158C9.17303 17.5089 9.1733 17.4591 9.13833 17.4522L5.37454 16.7071L4.75968 13.0989C4.75362 13.0631 4.70213 13.0631 4.6958 13.0989L4.08094 16.7071L0.317145 17.4522C0.282726 17.4591 0.283005 17.5089 0.3177 17.5158Z" fill="white" fill-opacity="0.3"/>
<path d="M3.32755 3.58649L5.80599 4.06726L6.21103 6.5614C6.21489 6.58536 6.24931 6.58536 6.25316 6.5614L6.65793 4.06726L9.13637 3.58649C9.15923 3.58209 9.1595 3.54933 9.13637 3.54465L6.65793 3.05396L6.25289 0.677672C6.24876 0.653992 6.21489 0.653992 6.21103 0.677672L5.80599 3.05396L3.32755 3.54465C3.30442 3.54905 3.30469 3.58181 3.32755 3.58649Z" fill="#FFE6A1"/>
</svg>
