<svg width="58" height="58" viewBox="0 0 58 58" fill="none" xmlns="http://www.w3.org/2000/svg">
<path d="M25.375 50.46C35.3852 50.46 43.5 40.8521 43.5 29C43.5 17.148 35.3852 7.54004 25.375 7.54004C15.3648 7.54004 7.25 17.148 7.25 29C7.25 40.8521 15.3648 50.46 25.375 50.46Z" fill="#2CBC36"/>
<path d="M19.3333 29L26.5833 36.25L38.6667 24.1667M50.75 29C50.75 33.3017 49.4744 37.5069 47.0845 41.0836C44.6946 44.6604 41.2977 47.4482 37.3234 49.0944C33.3491 50.7406 28.9759 51.1713 24.7568 50.3321C20.5377 49.4929 16.6622 47.4214 13.6204 44.3796C10.5786 41.3378 8.50716 37.4623 7.66793 33.2432C6.8287 29.0241 7.25942 24.6509 8.90563 20.6766C10.5518 16.7023 13.3396 13.3055 16.9164 10.9155C20.4931 8.52562 24.6983 7.25 29 7.25C34.7685 7.25 40.3007 9.54151 44.3796 13.6204C48.4585 17.6993 50.75 23.2315 50.75 29Z" stroke="#0A6C10" stroke-width="3" stroke-linecap="round" stroke-linejoin="round"/>
</svg>
